<svg xmlns="http://www.w3.org/2000/svg" viewBox="0 0 64 64">
  <circle cx="32" cy="32" r="30" fill="#114581"/>
  <path d="M32 6a26 26 0 1 0 0 52 26 26 0 0 0 0-52Zm0 4c2.7 0 5.3.5 7.7 1.4-.9 1.6-2.2 2.9-3.9 3.6-1.6.6-2.4 1.9-2.4 3.6 0 1.4-.8 2-2.3 2-2 0-2.7 1-2.7 3 0 2.4-1.2 3.4-3.5 3.4-1.7 0-2.6.8-3 2.4A22 22 0 0 1 32 10Zm-9.4 38.9c.5-1.7 1.7-2.6 3.6-2.8 2.3-.2 3.4-1.4 3.4-3.6 0-1.9.9-2.8 2.8-2.8h2.2c2.2 0 3.6-1.1 4.2-3.2.5-1.8 1.7-2.7 3.6-2.8 1.4-.1 2.5-.6 3.3-1.6A22 22 0 0 1 22.6 48.9Z" fill="#1BA4C4"/>
</svg>
